<?xml version="1.0" encoding="utf-8"?>
<!-- Generator: Adobe Illustrator 21.0.0, SVG Export Plug-In . SVG Version: 6.00 Build 0)  -->
<svg version="1.1" id="Layer_1" xmlns="http://www.w3.org/2000/svg" xmlns:xlink="http://www.w3.org/1999/xlink" x="0px" y="0px"
	 viewBox="0 0 28 36" enable-background="new 0 0 28 36" xml:space="preserve">
<g id="Layer_1_1_" display="none">
	<polygon display="inline" fill="#4D4D4D" points="17,16 12,16 10,18 12,20 17,20 17,25 21,29 21,7 17,11 	"/>
	<path display="inline" fill="#4D4D4D" d="M23,0H0v4h13l-9,9V7H0v22h4v-6l9,9H0v4h23c4.9,0,9-4.6,9-10V10C32,4.6,27.9,0,23,0z
		 M28,26c0,3.4-2.1,6-5,6h-2.2c-0.5,0-1-0.2-1.4-0.6L6,18L19.4,4.6C19.8,4.2,20.3,4,20.8,4H23c2.9,0,5,2.6,5,6V26z"/>
</g>
<g id="Layer_2" display="none">
	<path display="inline" fill="none" stroke="#000000" stroke-width="2" stroke-miterlimit="10" d="M0,1h17.3C21,1,24.4,2.4,27,5l0,0
		c2.6,2.6,4,6,4,9.7v6.7c0,3.6-1.4,7.1-4,9.7l0,0c-2.6,2.6-6,4-9.7,4H0"/>
	<line display="inline" fill="none" stroke="#000000" stroke-width="2" stroke-miterlimit="10" x1="1" y1="7" x2="1" y2="29"/>
	<polyline display="inline" fill="none" stroke="#000000" stroke-width="2" stroke-miterlimit="10" points="4,7 4,17.5 4,29 	"/>
	<polyline display="inline" fill="none" stroke="#000000" stroke-width="2" stroke-miterlimit="10" points="0,4 18,4 4,18 18,32 
		0,32 	"/>
	<path display="inline" fill="none" stroke="#000000" stroke-width="2" stroke-miterlimit="10" d="M19,32"/>
	<polyline display="inline" fill="none" stroke="#000000" stroke-width="2" stroke-miterlimit="10" points="22,32 8,18 22,4 	"/>
	<path display="inline" fill="none" stroke="#000000" stroke-width="2" stroke-miterlimit="10" d="M24,18"/>
</g>
<g id="Layer_4">
	<g>
		<polygon fill="#FFFFFF" points="16,16 10,16 8,18 10,20 16,20 16,24 20,28 20,8 16,12 		"/>
		<path fill="#FFFFFF" d="M20,0H0v4h13l-9,9V8H0v20h4v-5l9,9H0v4h20c4.4,0,8-3.6,8-8V8C28,3.6,24.4,0,20,0z M24,28c0,2.2-1.8,4-4,4
			h-2L4,18L18,4h2c2.2,0,4,1.8,4,4V28z"/>
	</g>
</g>
</svg>
