<?xml version="1.0" encoding="utf-8"?>
<!-- Generator: Adobe Illustrator 21.0.0, SVG Export Plug-In . SVG Version: 6.00 Build 0)  -->
<svg version="1.1" id="Layer_1" xmlns="http://www.w3.org/2000/svg" xmlns:xlink="http://www.w3.org/1999/xlink" x="0px" y="0px"
	 viewBox="0 0 28 36" enable-background="new 0 0 28 36" xml:space="preserve">
<g id="Layer_1_1_" display="none">
	<polygon display="inline" fill="#4D4D4D" points="17,16 12,16 10,18 12,20 17,20 17,25 21,29 21,7 17,11 	"/>
	<path display="inline" fill="#4D4D4D" d="M23,0H0v4h13l-9,9V7H0v22h4v-6l9,9H0v4h23c4.9,0,9-4.6,9-10V10C32,4.6,27.9,0,23,0z
		 M28,26c0,3.4-2.1,6-5,6h-2.2c-0.5,0-1-0.2-1.4-0.6L6,18L19.4,4.6C19.8,4.2,20.3,4,20.8,4H23c2.9,0,5,2.6,5,6V26z"/>
</g>
<g id="Layer_2" display="none">
	<path display="inline" fill="none" stroke="#000000" stroke-width="2" stroke-miterlimit="10" d="M0,1h17.3C21,1,24.4,2.4,27,5l0,0
		c2.6,2.6,4,6,4,9.7v6.7c0,3.6-1.4,7.1-4,9.7l0,0c-2.6,2.6-6,4-9.7,4H0"/>
	<line display="inline" fill="none" stroke="#000000" stroke-width="2" stroke-miterlimit="10" x1="1" y1="7" x2="1" y2="29"/>
	<polyline display="inline" fill="none" stroke="#000000" stroke-width="2" stroke-miterlimit="10" points="4,7 4,17.5 4,29 	"/>
	<polyline display="inline" fill="none" stroke="#000000" stroke-width="2" stroke-miterlimit="10" points="0,4 18,4 4,18 18,32 
		0,32 	"/>
	<path display="inline" fill="none" stroke="#000000" stroke-width="2" stroke-miterlimit="10" d="M19,32"/>
	<polyline display="inline" fill="none" stroke="#000000" stroke-width="2" stroke-miterlimit="10" points="22,32 8,18 22,4 	"/>
	<path display="inline" fill="none" stroke="#000000" stroke-width="2" stroke-miterlimit="10" d="M24,18"/>
</g>
<g id="Layer_4">
	<g>
		<path fill="#FFFFFF" d="M16,16h-5.8c-0.1,0-0.3,0.1-0.4,0.1l-1.5,1.5c-0.2,0.2-0.2,0.5,0,0.7l1.5,1.5c0.1,0.1,0.2,0.1,0.4,0.1H16
			v3.8c0,0.1,0.1,0.3,0.1,0.4l3,3c0.3,0.3,0.9,0.1,0.9-0.4V9.2c0-0.4-0.5-0.7-0.9-0.4l-3,3C16,11.9,16,12,16,12.2V16z"/>
		<path fill="#FFFFFF" d="M19.5,0h-19C0.2,0,0,0.2,0,0.5V4v28v3.5C0,35.8,0.2,36,0.5,36h19c4.7,0,8.5-3.8,8.5-8.5v-19
			C28,3.8,24.2,0,19.5,0z M24,27.5c0,2.5-2,4.5-4.5,4.5H4v-9l4.9,4.9c0,0,0.2,0.1,0.3,0.1h3.6c0.4,0,0.7-0.5,0.4-0.9l-8.8-8.8
			c-0.2-0.2-0.2-0.5,0-0.7l8.8-8.8c0.3-0.3,0-0.8-0.4-0.8H9.2C9.1,8,8.9,8.1,8.9,8.1L4,13V4h16l0,0l0,0c2.2,0,4,1.8,4,4V27.5z"/>
	</g>
</g>
</svg>
